<svg width="497" height="504" viewBox="0 0 497 504" fill="none" xmlns="http://www.w3.org/2000/svg">
<rect x="59.8082" y="250.569" width="43.0773" height="252.433" fill="#AEB8FE"/>
<path d="M48.6082 219.553H114.086V232.91C114.086 237.905 110.037 241.954 105.042 241.954H57.6514C52.657 241.954 48.6082 237.905 48.6082 232.91V219.553Z" fill="#737AB0"/>
<path d="M56.3618 241.954H106.331V247.178C106.331 249.051 104.813 250.569 102.94 250.569H59.7531C57.8801 250.569 56.3618 249.051 56.3618 247.178V241.954Z" fill="#8D97DD"/>
<path d="M114.086 503.002H48.6082V483.993C48.6082 482.12 50.1265 480.602 51.9994 480.602H110.694C112.567 480.602 114.086 482.12 114.086 483.993V503.002Z" fill="#737AB0"/>
<path d="M106.332 480.602H56.362V475.378C56.362 473.505 57.8803 471.986 59.7532 471.986H102.94C104.813 471.986 106.332 473.505 106.332 475.378V480.602Z" fill="#8D97DD"/>
<rect x="170.503" y="250.569" width="43.0773" height="252.433" fill="#AEB8FE"/>
<path d="M159.303 219.553H224.78V232.91C224.78 237.905 220.731 241.954 215.737 241.954H168.346C163.351 241.954 159.303 237.905 159.303 232.91V219.553Z" fill="#737AB0"/>
<path d="M167.056 241.954H217.026V247.178C217.026 249.051 215.508 250.569 213.635 250.569H170.448C168.575 250.569 167.056 249.051 167.056 247.178V241.954Z" fill="#8D97DD"/>
<path d="M224.78 503.002H159.303V483.993C159.303 482.12 160.821 480.602 162.694 480.602H221.389C223.262 480.602 224.78 482.12 224.78 483.993V503.002Z" fill="#737AB0"/>
<path d="M217.026 480.602H167.056V475.378C167.056 473.505 168.575 471.986 170.448 471.986H213.635C215.508 471.986 217.026 473.505 217.026 475.378V480.602Z" fill="#8D97DD"/>
<rect x="281.197" y="250.569" width="43.0773" height="252.433" fill="#AEB8FE"/>
<path d="M269.997 219.553H335.474V232.91C335.474 237.905 331.426 241.954 326.431 241.954H279.04C274.046 241.954 269.997 237.905 269.997 232.91V219.553Z" fill="#737AB0"/>
<path d="M277.751 241.954H327.72V247.178C327.72 249.051 326.202 250.569 324.329 250.569H281.142C279.269 250.569 277.751 249.051 277.751 247.178V241.954Z" fill="#8D97DD"/>
<path d="M335.474 503.002H269.997V483.993C269.997 482.12 271.515 480.602 273.388 480.602H332.083C333.956 480.602 335.474 482.12 335.474 483.993V503.002Z" fill="#737AB0"/>
<path d="M327.72 480.602H277.751V475.378C277.751 473.505 279.269 471.986 281.142 471.986H324.329C326.202 471.986 327.72 473.505 327.72 475.378V480.602Z" fill="#8D97DD"/>
<rect x="391.891" y="250.569" width="43.0773" height="252.433" fill="#AEB8FE"/>
<path d="M380.691 219.553H446.169V232.91C446.169 237.905 442.12 241.954 437.126 241.954H389.735C384.74 241.954 380.691 237.905 380.691 232.91V219.553Z" fill="#737AB0"/>
<path d="M388.445 241.954H438.415V247.178C438.415 249.051 436.896 250.569 435.023 250.569H391.836C389.963 250.569 388.445 249.051 388.445 247.178V241.954Z" fill="#8D97DD"/>
<path d="M446.169 503.002H380.691V483.993C380.691 482.12 382.21 480.602 384.083 480.602H442.778C444.651 480.602 446.169 482.12 446.169 483.993V503.002Z" fill="#737AB0"/>
<path d="M438.415 480.602H388.445V475.378C388.445 473.505 389.964 471.986 391.836 471.986H435.024C436.897 471.986 438.415 473.505 438.415 475.378V480.602Z" fill="#8D97DD"/>
<path d="M421.296 134.751C421.296 209.172 343.572 193.574 247.694 193.574C151.817 193.574 74.0927 209.172 74.0927 134.751C74.0927 60.33 151.817 0 247.694 0C343.572 0 421.296 60.33 421.296 134.751Z" fill="#AEB8FE"/>
<rect x="27.5692" y="194.935" width="441.111" height="25.0147" rx="9.04329" fill="#8D97DD"/>
<path d="M27.5692 136.282H468.681V144.49C468.681 149.484 464.632 153.533 459.637 153.533H36.6125C31.618 153.533 27.5692 149.484 27.5692 144.49V136.282Z" fill="#8D97DD"/>
<rect y="119.031" width="496.25" height="17.2515" rx="8.62577" fill="#AEB8FE"/>
<rect x="40.4928" y="153.533" width="415.265" height="41.4004" fill="#AEB8FE"/>
</svg>
